<svg width="874" height="881" viewBox="0 0 874 881" fill="none" xmlns="http://www.w3.org/2000/svg">
<path fill-rule="evenodd" clip-rule="evenodd" d="M549.287 82.6528C541.248 55.5163 523.161 31.4109 496.891 16.1105V16.2549C478.944 5.88198 459.374 0.933345 440.063 0.90918H759.565C696.509 0.987423 645.416 52.7728 645.416 116.642C645.416 180.56 696.586 232.375 759.708 232.375C822.773 232.375 873.909 180.652 874 116.813V437.064C873.895 385.35 839.763 341.583 792.894 327.315C785.86 326.016 778.969 324.716 772.079 322.984C720.831 310.571 672.167 284.156 632.116 243.884C592.066 203.612 565.796 154.536 553.45 102.861C551.728 96.0767 550.436 89.4369 549.287 82.6528ZM874 437.545C873.871 500.945 822.816 552.201 759.733 552.201C708.055 552.201 664.559 517.848 650.347 470.503C649.199 463.719 647.907 456.791 646.184 450.151C633.839 398.476 607.569 349.399 567.518 309.127C527.467 268.856 478.66 242.441 427.269 230.027C420.522 228.439 413.775 226.996 407.028 225.841C398.702 223.387 390.663 219.923 382.768 215.304C328.075 183.549 309.413 113.398 340.851 58.4031C362.018 21.5429 400.339 0.95853 439.779 0.90918H114.943H0V116.503V443.317V763.978V880.091H874V764.118V437.545ZM0 763.978C0 827.896 51.1704 879.711 114.292 879.711C177.414 879.711 228.585 827.896 228.585 763.978C228.585 700.06 177.414 648.245 114.292 648.245C51.1704 648.245 0 700.06 0 763.978ZM0 443.317C0 495.28 34.1652 539.016 81.1065 553.306C88.1405 554.605 95.0309 555.905 101.921 557.637C153.169 570.05 201.833 596.465 241.884 636.737C281.935 677.008 308.205 726.085 320.55 777.76C322.273 784.544 323.565 791.184 324.713 797.968C332.752 825.105 350.839 849.21 377.109 864.51V864.366C431.802 895.977 501.568 877.213 533.149 822.218C564.587 767.223 545.926 697.072 491.232 665.317C483.337 660.698 475.298 657.233 466.972 654.78C460.225 653.625 453.478 652.181 446.732 650.594C395.34 638.18 346.533 611.765 306.482 571.494C266.431 531.222 240.161 482.145 227.816 430.47C226.093 423.83 224.801 416.902 223.653 410.118C209.441 362.773 165.945 328.42 114.267 328.42C51.1043 328.42 0 379.806 0 443.317ZM874 764.118C874 827.983 822.563 879.711 759.057 879.711C714.804 879.711 676.298 854.57 657.188 817.58C656.948 817.063 656.701 816.538 656.448 816.009C656.172 815.428 655.89 814.842 655.608 814.256C655.069 813.137 654.53 812.017 654.027 810.933C594.113 686.814 512.791 570.353 410.348 467.186C307.904 364.163 192.099 282.525 68.6786 222.127C67.5296 221.549 66.3805 221.008 65.2315 220.466L65.2312 220.466L65.2308 220.466L65.2305 220.465L65.2301 220.465L65.23 220.465L65.2293 220.465C64.0802 219.923 62.9311 219.381 61.782 218.804C25.0002 199.586 0 161.007 0 116.503C0 52.6374 51.4371 0.90918 114.943 0.90918C159.196 0.90918 197.559 26.0508 216.812 62.8964C217.386 64.0523 217.925 65.2083 218.464 66.3642C219.003 67.5201 219.542 68.6761 220.116 69.832C280.031 193.951 361.209 310.267 463.796 413.435C566.383 516.602 682.045 598.24 805.609 658.494C806.687 659 807.801 659.542 808.915 660.084L808.92 660.086C809.655 660.444 810.39 660.801 811.114 661.149C811.485 661.326 811.854 661.502 812.218 661.672C849 681.034 874 719.614 874 764.118ZM874 0.90918V116.471C873.909 52.6804 822.851 0.987353 759.851 0.90918H874Z" fill="#0f1219"/>
</svg>
